<svg width="610" height="610" viewBox="0 0 610 610" fill="none" xmlns="http://www.w3.org/2000/svg">
<rect width="10" height="10" fill="#D9D9D9"/>
<rect x="40" width="10" height="10" fill="#D9D9D9"/>
<rect y="40" width="10" height="10" fill="#D9D9D9"/>
<rect x="40" y="40" width="10" height="10" fill="#D9D9D9"/>
<rect x="80" width="10" height="10" fill="#D9D9D9"/>
<rect x="120" width="10" height="10" fill="#D9D9D9"/>
<rect x="80" y="40" width="10" height="10" fill="#D9D9D9"/>
<rect x="120" y="40" width="10" height="10" fill="#D9D9D9"/>
<rect y="80" width="10" height="10" fill="#D9D9D9"/>
<rect x="40" y="80" width="10" height="10" fill="#D9D9D9"/>
<rect y="120" width="10" height="10" fill="#D9D9D9"/>
<rect x="40" y="120" width="10" height="10" fill="#D9D9D9"/>
<rect x="80" y="80" width="10" height="10" fill="#D9D9D9"/>
<rect x="120" y="80" width="10" height="10" fill="#D9D9D9"/>
<rect x="80" y="120" width="10" height="10" fill="#D9D9D9"/>
<rect x="120" y="120" width="10" height="10" fill="#D9D9D9"/>
<rect x="160" y="80" width="10" height="10" fill="#D9D9D9"/>
<rect x="200" y="80" width="10" height="10" fill="#D9D9D9"/>
<rect x="160" y="120" width="10" height="10" fill="#D9D9D9"/>
<rect x="200" y="120" width="10" height="10" fill="#D9D9D9"/>
<rect x="240" y="80" width="10" height="10" fill="#D9D9D9"/>
<rect x="280" y="80" width="10" height="10" fill="#D9D9D9"/>
<rect x="240" y="120" width="10" height="10" fill="#D9D9D9"/>
<rect x="280" y="120" width="10" height="10" fill="#D9D9D9"/>
<rect x="160" width="10" height="10" fill="#D9D9D9"/>
<rect x="200" width="10" height="10" fill="#D9D9D9"/>
<rect x="160" y="40" width="10" height="10" fill="#D9D9D9"/>
<rect x="200" y="40" width="10" height="10" fill="#D9D9D9"/>
<rect x="240" width="10" height="10" fill="#D9D9D9"/>
<rect x="280" width="10" height="10" fill="#D9D9D9"/>
<rect x="240" y="40" width="10" height="10" fill="#D9D9D9"/>
<rect x="280" y="40" width="10" height="10" fill="#D9D9D9"/>
<rect y="160" width="10" height="10" fill="#D9D9D9"/>
<rect x="40" y="160" width="10" height="10" fill="#D9D9D9"/>
<rect y="200" width="10" height="10" fill="#D9D9D9"/>
<rect x="40" y="200" width="10" height="10" fill="#D9D9D9"/>
<rect x="80" y="160" width="10" height="10" fill="#D9D9D9"/>
<rect x="120" y="160" width="10" height="10" fill="#D9D9D9"/>
<rect x="80" y="200" width="10" height="10" fill="#D9D9D9"/>
<rect x="120" y="200" width="10" height="10" fill="#D9D9D9"/>
<rect y="240" width="10" height="10" fill="#D9D9D9"/>
<rect x="40" y="240" width="10" height="10" fill="#D9D9D9"/>
<rect y="280" width="10" height="10" fill="#D9D9D9"/>
<rect x="40" y="280" width="10" height="10" fill="#D9D9D9"/>
<rect x="80" y="240" width="10" height="10" fill="#D9D9D9"/>
<rect x="120" y="240" width="10" height="10" fill="#D9D9D9"/>
<rect x="80" y="280" width="10" height="10" fill="#D9D9D9"/>
<rect x="120" y="280" width="10" height="10" fill="#D9D9D9"/>
<rect x="160" y="240" width="10" height="10" fill="#D9D9D9"/>
<rect x="200" y="240" width="10" height="10" fill="#D9D9D9"/>
<rect x="160" y="280" width="10" height="10" fill="#D9D9D9"/>
<rect x="200" y="280" width="10" height="10" fill="#D9D9D9"/>
<rect x="240" y="240" width="10" height="10" fill="#D9D9D9"/>
<rect x="280" y="240" width="10" height="10" fill="#D9D9D9"/>
<rect x="240" y="280" width="10" height="10" fill="#D9D9D9"/>
<rect x="280" y="280" width="10" height="10" fill="#D9D9D9"/>
<rect x="160" y="160" width="10" height="10" fill="#D9D9D9"/>
<rect x="200" y="160" width="10" height="10" fill="#D9D9D9"/>
<rect x="160" y="200" width="10" height="10" fill="#D9D9D9"/>
<rect x="200" y="200" width="10" height="10" fill="#D9D9D9"/>
<rect x="240" y="160" width="10" height="10" fill="#D9D9D9"/>
<rect x="280" y="160" width="10" height="10" fill="#D9D9D9"/>
<rect x="240" y="200" width="10" height="10" fill="#D9D9D9"/>
<rect x="280" y="200" width="10" height="10" fill="#D9D9D9"/>
<rect x="320" width="10" height="10" fill="#D9D9D9"/>
<rect x="360" width="10" height="10" fill="#D9D9D9"/>
<rect x="320" y="40" width="10" height="10" fill="#D9D9D9"/>
<rect x="360" y="40" width="10" height="10" fill="#D9D9D9"/>
<rect x="400" width="10" height="10" fill="#D9D9D9"/>
<rect x="440" width="10" height="10" fill="#D9D9D9"/>
<rect x="400" y="40" width="10" height="10" fill="#D9D9D9"/>
<rect x="440" y="40" width="10" height="10" fill="#D9D9D9"/>
<rect x="320" y="80" width="10" height="10" fill="#D9D9D9"/>
<rect x="360" y="80" width="10" height="10" fill="#D9D9D9"/>
<rect x="320" y="120" width="10" height="10" fill="#D9D9D9"/>
<rect x="360" y="120" width="10" height="10" fill="#D9D9D9"/>
<rect x="400" y="80" width="10" height="10" fill="#D9D9D9"/>
<rect x="440" y="80" width="10" height="10" fill="#D9D9D9"/>
<rect x="400" y="120" width="10" height="10" fill="#D9D9D9"/>
<rect x="440" y="120" width="10" height="10" fill="#D9D9D9"/>
<rect x="480" y="80" width="10" height="10" fill="#D9D9D9"/>
<rect x="520" y="80" width="10" height="10" fill="#D9D9D9"/>
<rect x="480" y="120" width="10" height="10" fill="#D9D9D9"/>
<rect x="520" y="120" width="10" height="10" fill="#D9D9D9"/>
<rect x="560" y="80" width="10" height="10" fill="#D9D9D9"/>
<rect x="600" y="80" width="10" height="10" fill="#D9D9D9"/>
<rect x="560" y="120" width="10" height="10" fill="#D9D9D9"/>
<rect x="600" y="120" width="10" height="10" fill="#D9D9D9"/>
<rect x="480" width="10" height="10" fill="#D9D9D9"/>
<rect x="520" width="10" height="10" fill="#D9D9D9"/>
<rect x="480" y="40" width="10" height="10" fill="#D9D9D9"/>
<rect x="520" y="40" width="10" height="10" fill="#D9D9D9"/>
<rect x="560" width="10" height="10" fill="#D9D9D9"/>
<rect x="600" width="10" height="10" fill="#D9D9D9"/>
<rect x="560" y="40" width="10" height="10" fill="#D9D9D9"/>
<rect x="600" y="40" width="10" height="10" fill="#D9D9D9"/>
<rect x="320" y="160" width="10" height="10" fill="#D9D9D9"/>
<rect x="360" y="160" width="10" height="10" fill="#D9D9D9"/>
<rect x="320" y="200" width="10" height="10" fill="#D9D9D9"/>
<rect x="360" y="200" width="10" height="10" fill="#D9D9D9"/>
<rect x="400" y="160" width="10" height="10" fill="#D9D9D9"/>
<rect x="440" y="160" width="10" height="10" fill="#D9D9D9"/>
<rect x="400" y="200" width="10" height="10" fill="#D9D9D9"/>
<rect x="440" y="200" width="10" height="10" fill="#D9D9D9"/>
<rect x="320" y="240" width="10" height="10" fill="#D9D9D9"/>
<rect x="360" y="240" width="10" height="10" fill="#D9D9D9"/>
<rect x="320" y="280" width="10" height="10" fill="#D9D9D9"/>
<rect x="360" y="280" width="10" height="10" fill="#D9D9D9"/>
<rect x="400" y="240" width="10" height="10" fill="#D9D9D9"/>
<rect x="440" y="240" width="10" height="10" fill="#D9D9D9"/>
<rect x="400" y="280" width="10" height="10" fill="#D9D9D9"/>
<rect x="440" y="280" width="10" height="10" fill="#D9D9D9"/>
<rect x="480" y="240" width="10" height="10" fill="#D9D9D9"/>
<rect x="520" y="240" width="10" height="10" fill="#D9D9D9"/>
<rect x="480" y="280" width="10" height="10" fill="#D9D9D9"/>
<rect x="520" y="280" width="10" height="10" fill="#D9D9D9"/>
<rect x="560" y="240" width="10" height="10" fill="#D9D9D9"/>
<rect x="600" y="240" width="10" height="10" fill="#D9D9D9"/>
<rect x="560" y="280" width="10" height="10" fill="#D9D9D9"/>
<rect x="600" y="280" width="10" height="10" fill="#D9D9D9"/>
<rect x="480" y="160" width="10" height="10" fill="#D9D9D9"/>
<rect x="520" y="160" width="10" height="10" fill="#D9D9D9"/>
<rect x="480" y="200" width="10" height="10" fill="#D9D9D9"/>
<rect x="520" y="200" width="10" height="10" fill="#D9D9D9"/>
<rect x="560" y="160" width="10" height="10" fill="#D9D9D9"/>
<rect x="600" y="160" width="10" height="10" fill="#D9D9D9"/>
<rect x="560" y="200" width="10" height="10" fill="#D9D9D9"/>
<rect x="600" y="200" width="10" height="10" fill="#D9D9D9"/>
<rect x="320" y="320" width="10" height="10" fill="#D9D9D9"/>
<rect x="360" y="320" width="10" height="10" fill="#D9D9D9"/>
<rect x="320" y="360" width="10" height="10" fill="#D9D9D9"/>
<rect x="360" y="360" width="10" height="10" fill="#D9D9D9"/>
<rect x="400" y="320" width="10" height="10" fill="#D9D9D9"/>
<rect x="440" y="320" width="10" height="10" fill="#D9D9D9"/>
<rect x="400" y="360" width="10" height="10" fill="#D9D9D9"/>
<rect x="440" y="360" width="10" height="10" fill="#D9D9D9"/>
<rect x="320" y="400" width="10" height="10" fill="#D9D9D9"/>
<rect x="360" y="400" width="10" height="10" fill="#D9D9D9"/>
<rect x="320" y="440" width="10" height="10" fill="#D9D9D9"/>
<rect x="360" y="440" width="10" height="10" fill="#D9D9D9"/>
<rect x="400" y="400" width="10" height="10" fill="#D9D9D9"/>
<rect x="440" y="400" width="10" height="10" fill="#D9D9D9"/>
<rect x="400" y="440" width="10" height="10" fill="#D9D9D9"/>
<rect x="440" y="440" width="10" height="10" fill="#D9D9D9"/>
<rect x="480" y="400" width="10" height="10" fill="#D9D9D9"/>
<rect x="520" y="400" width="10" height="10" fill="#D9D9D9"/>
<rect x="480" y="440" width="10" height="10" fill="#D9D9D9"/>
<rect x="520" y="440" width="10" height="10" fill="#D9D9D9"/>
<rect x="560" y="400" width="10" height="10" fill="#D9D9D9"/>
<rect x="600" y="400" width="10" height="10" fill="#D9D9D9"/>
<rect x="560" y="440" width="10" height="10" fill="#D9D9D9"/>
<rect x="600" y="440" width="10" height="10" fill="#D9D9D9"/>
<rect x="480" y="320" width="10" height="10" fill="#D9D9D9"/>
<rect x="520" y="320" width="10" height="10" fill="#D9D9D9"/>
<rect x="480" y="360" width="10" height="10" fill="#D9D9D9"/>
<rect x="520" y="360" width="10" height="10" fill="#D9D9D9"/>
<rect x="560" y="320" width="10" height="10" fill="#D9D9D9"/>
<rect x="600" y="320" width="10" height="10" fill="#D9D9D9"/>
<rect x="560" y="360" width="10" height="10" fill="#D9D9D9"/>
<rect x="600" y="360" width="10" height="10" fill="#D9D9D9"/>
<rect x="320" y="480" width="10" height="10" fill="#D9D9D9"/>
<rect x="360" y="480" width="10" height="10" fill="#D9D9D9"/>
<rect x="320" y="520" width="10" height="10" fill="#D9D9D9"/>
<rect x="360" y="520" width="10" height="10" fill="#D9D9D9"/>
<rect x="400" y="480" width="10" height="10" fill="#D9D9D9"/>
<rect x="440" y="480" width="10" height="10" fill="#D9D9D9"/>
<rect x="400" y="520" width="10" height="10" fill="#D9D9D9"/>
<rect x="440" y="520" width="10" height="10" fill="#D9D9D9"/>
<rect x="320" y="560" width="10" height="10" fill="#D9D9D9"/>
<rect x="360" y="560" width="10" height="10" fill="#D9D9D9"/>
<rect x="320" y="600" width="10" height="10" fill="#D9D9D9"/>
<rect x="360" y="600" width="10" height="10" fill="#D9D9D9"/>
<rect x="400" y="560" width="10" height="10" fill="#D9D9D9"/>
<rect x="440" y="560" width="10" height="10" fill="#D9D9D9"/>
<rect x="400" y="600" width="10" height="10" fill="#D9D9D9"/>
<rect x="440" y="600" width="10" height="10" fill="#D9D9D9"/>
<rect x="480" y="560" width="10" height="10" fill="#D9D9D9"/>
<rect x="520" y="560" width="10" height="10" fill="#D9D9D9"/>
<rect x="480" y="600" width="10" height="10" fill="#D9D9D9"/>
<rect x="520" y="600" width="10" height="10" fill="#D9D9D9"/>
<rect x="560" y="560" width="10" height="10" fill="#D9D9D9"/>
<rect x="600" y="560" width="10" height="10" fill="#D9D9D9"/>
<rect x="560" y="600" width="10" height="10" fill="#D9D9D9"/>
<rect x="600" y="600" width="10" height="10" fill="#D9D9D9"/>
<rect x="480" y="480" width="10" height="10" fill="#D9D9D9"/>
<rect x="520" y="480" width="10" height="10" fill="#D9D9D9"/>
<rect x="480" y="520" width="10" height="10" fill="#D9D9D9"/>
<rect x="520" y="520" width="10" height="10" fill="#D9D9D9"/>
<rect x="560" y="480" width="10" height="10" fill="#D9D9D9"/>
<rect x="600" y="480" width="10" height="10" fill="#D9D9D9"/>
<rect x="560" y="520" width="10" height="10" fill="#D9D9D9"/>
<rect x="600" y="520" width="10" height="10" fill="#D9D9D9"/>
<rect y="320" width="10" height="10" fill="#D9D9D9"/>
<rect x="40" y="320" width="10" height="10" fill="#D9D9D9"/>
<rect y="360" width="10" height="10" fill="#D9D9D9"/>
<rect x="40" y="360" width="10" height="10" fill="#D9D9D9"/>
<rect x="80" y="320" width="10" height="10" fill="#D9D9D9"/>
<rect x="120" y="320" width="10" height="10" fill="#D9D9D9"/>
<rect x="80" y="360" width="10" height="10" fill="#D9D9D9"/>
<rect x="120" y="360" width="10" height="10" fill="#D9D9D9"/>
<rect y="400" width="10" height="10" fill="#D9D9D9"/>
<rect x="40" y="400" width="10" height="10" fill="#D9D9D9"/>
<rect y="440" width="10" height="10" fill="#D9D9D9"/>
<rect x="40" y="440" width="10" height="10" fill="#D9D9D9"/>
<rect x="80" y="400" width="10" height="10" fill="#D9D9D9"/>
<rect x="120" y="400" width="10" height="10" fill="#D9D9D9"/>
<rect x="80" y="440" width="10" height="10" fill="#D9D9D9"/>
<rect x="120" y="440" width="10" height="10" fill="#D9D9D9"/>
<rect x="160" y="400" width="10" height="10" fill="#D9D9D9"/>
<rect x="200" y="400" width="10" height="10" fill="#D9D9D9"/>
<rect x="160" y="440" width="10" height="10" fill="#D9D9D9"/>
<rect x="200" y="440" width="10" height="10" fill="#D9D9D9"/>
<rect x="240" y="400" width="10" height="10" fill="#D9D9D9"/>
<rect x="280" y="400" width="10" height="10" fill="#D9D9D9"/>
<rect x="240" y="440" width="10" height="10" fill="#D9D9D9"/>
<rect x="280" y="440" width="10" height="10" fill="#D9D9D9"/>
<rect x="160" y="320" width="10" height="10" fill="#D9D9D9"/>
<rect x="200" y="320" width="10" height="10" fill="#D9D9D9"/>
<rect x="160" y="360" width="10" height="10" fill="#D9D9D9"/>
<rect x="200" y="360" width="10" height="10" fill="#D9D9D9"/>
<rect x="240" y="320" width="10" height="10" fill="#D9D9D9"/>
<rect x="280" y="320" width="10" height="10" fill="#D9D9D9"/>
<rect x="240" y="360" width="10" height="10" fill="#D9D9D9"/>
<rect x="280" y="360" width="10" height="10" fill="#D9D9D9"/>
<rect y="480" width="10" height="10" fill="#D9D9D9"/>
<rect x="40" y="480" width="10" height="10" fill="#D9D9D9"/>
<rect y="520" width="10" height="10" fill="#D9D9D9"/>
<rect x="40" y="520" width="10" height="10" fill="#D9D9D9"/>
<rect x="80" y="480" width="10" height="10" fill="#D9D9D9"/>
<rect x="120" y="480" width="10" height="10" fill="#D9D9D9"/>
<rect x="80" y="520" width="10" height="10" fill="#D9D9D9"/>
<rect x="120" y="520" width="10" height="10" fill="#D9D9D9"/>
<rect y="560" width="10" height="10" fill="#D9D9D9"/>
<rect x="40" y="560" width="10" height="10" fill="#D9D9D9"/>
<rect y="600" width="10" height="10" fill="#D9D9D9"/>
<rect x="40" y="600" width="10" height="10" fill="#D9D9D9"/>
<rect x="80" y="560" width="10" height="10" fill="#D9D9D9"/>
<rect x="120" y="560" width="10" height="10" fill="#D9D9D9"/>
<rect x="80" y="600" width="10" height="10" fill="#D9D9D9"/>
<rect x="120" y="600" width="10" height="10" fill="#D9D9D9"/>
<rect x="160" y="560" width="10" height="10" fill="#D9D9D9"/>
<rect x="200" y="560" width="10" height="10" fill="#D9D9D9"/>
<rect x="160" y="600" width="10" height="10" fill="#D9D9D9"/>
<rect x="200" y="600" width="10" height="10" fill="#D9D9D9"/>
<rect x="240" y="560" width="10" height="10" fill="#D9D9D9"/>
<rect x="280" y="560" width="10" height="10" fill="#D9D9D9"/>
<rect x="240" y="600" width="10" height="10" fill="#D9D9D9"/>
<rect x="280" y="600" width="10" height="10" fill="#D9D9D9"/>
<rect x="160" y="480" width="10" height="10" fill="#D9D9D9"/>
<rect x="200" y="480" width="10" height="10" fill="#D9D9D9"/>
<rect x="160" y="520" width="10" height="10" fill="#D9D9D9"/>
<rect x="200" y="520" width="10" height="10" fill="#D9D9D9"/>
<rect x="240" y="480" width="10" height="10" fill="#D9D9D9"/>
<rect x="280" y="480" width="10" height="10" fill="#D9D9D9"/>
<rect x="240" y="520" width="10" height="10" fill="#D9D9D9"/>
<rect x="280" y="520" width="10" height="10" fill="#D9D9D9"/>
</svg>
