<svg width="290" height="290" viewBox="0 0 290 290" fill="none" xmlns="http://www.w3.org/2000/svg">
<rect width="10" height="10" fill="#D9D9D9"/>
<rect x="40" width="10" height="10" fill="#D9D9D9"/>
<rect y="40" width="10" height="10" fill="#D9D9D9"/>
<rect x="40" y="40" width="10" height="10" fill="#D9D9D9"/>
<rect x="80" width="10" height="10" fill="#D9D9D9"/>
<rect x="120" width="10" height="10" fill="#D9D9D9"/>
<rect x="80" y="40" width="10" height="10" fill="#D9D9D9"/>
<rect x="120" y="40" width="10" height="10" fill="#D9D9D9"/>
<rect y="80" width="10" height="10" fill="#D9D9D9"/>
<rect x="40" y="80" width="10" height="10" fill="#D9D9D9"/>
<rect y="120" width="10" height="10" fill="#D9D9D9"/>
<rect x="40" y="120" width="10" height="10" fill="#D9D9D9"/>
<rect x="80" y="80" width="10" height="10" fill="#D9D9D9"/>
<rect x="120" y="80" width="10" height="10" fill="#D9D9D9"/>
<rect x="80" y="120" width="10" height="10" fill="#D9D9D9"/>
<rect x="120" y="120" width="10" height="10" fill="#D9D9D9"/>
<rect x="160" y="80" width="10" height="10" fill="#D9D9D9"/>
<rect x="200" y="80" width="10" height="10" fill="#D9D9D9"/>
<rect x="160" y="120" width="10" height="10" fill="#D9D9D9"/>
<rect x="200" y="120" width="10" height="10" fill="#D9D9D9"/>
<rect x="240" y="80" width="10" height="10" fill="#D9D9D9"/>
<rect x="280" y="80" width="10" height="10" fill="#D9D9D9"/>
<rect x="240" y="120" width="10" height="10" fill="#D9D9D9"/>
<rect x="280" y="120" width="10" height="10" fill="#D9D9D9"/>
<rect x="160" width="10" height="10" fill="#D9D9D9"/>
<rect x="200" width="10" height="10" fill="#D9D9D9"/>
<rect x="160" y="40" width="10" height="10" fill="#D9D9D9"/>
<rect x="200" y="40" width="10" height="10" fill="#D9D9D9"/>
<rect x="240" width="10" height="10" fill="#D9D9D9"/>
<rect x="280" width="10" height="10" fill="#D9D9D9"/>
<rect x="240" y="40" width="10" height="10" fill="#D9D9D9"/>
<rect x="280" y="40" width="10" height="10" fill="#D9D9D9"/>
<rect y="160" width="10" height="10" fill="#D9D9D9"/>
<rect x="40" y="160" width="10" height="10" fill="#D9D9D9"/>
<rect y="200" width="10" height="10" fill="#D9D9D9"/>
<rect x="40" y="200" width="10" height="10" fill="#D9D9D9"/>
<rect x="80" y="160" width="10" height="10" fill="#D9D9D9"/>
<rect x="120" y="160" width="10" height="10" fill="#D9D9D9"/>
<rect x="80" y="200" width="10" height="10" fill="#D9D9D9"/>
<rect x="120" y="200" width="10" height="10" fill="#D9D9D9"/>
<rect y="240" width="10" height="10" fill="#D9D9D9"/>
<rect x="40" y="240" width="10" height="10" fill="#D9D9D9"/>
<rect y="280" width="10" height="10" fill="#D9D9D9"/>
<rect x="40" y="280" width="10" height="10" fill="#D9D9D9"/>
<rect x="80" y="240" width="10" height="10" fill="#D9D9D9"/>
<rect x="120" y="240" width="10" height="10" fill="#D9D9D9"/>
<rect x="80" y="280" width="10" height="10" fill="#D9D9D9"/>
<rect x="120" y="280" width="10" height="10" fill="#D9D9D9"/>
<rect x="160" y="240" width="10" height="10" fill="#D9D9D9"/>
<rect x="200" y="240" width="10" height="10" fill="#D9D9D9"/>
<rect x="160" y="280" width="10" height="10" fill="#D9D9D9"/>
<rect x="200" y="280" width="10" height="10" fill="#D9D9D9"/>
<rect x="240" y="240" width="10" height="10" fill="#D9D9D9"/>
<rect x="280" y="240" width="10" height="10" fill="#D9D9D9"/>
<rect x="240" y="280" width="10" height="10" fill="#D9D9D9"/>
<rect x="280" y="280" width="10" height="10" fill="#D9D9D9"/>
<rect x="160" y="160" width="10" height="10" fill="#D9D9D9"/>
<rect x="200" y="160" width="10" height="10" fill="#D9D9D9"/>
<rect x="160" y="200" width="10" height="10" fill="#D9D9D9"/>
<rect x="200" y="200" width="10" height="10" fill="#D9D9D9"/>
<rect x="240" y="160" width="10" height="10" fill="#D9D9D9"/>
<rect x="280" y="160" width="10" height="10" fill="#D9D9D9"/>
<rect x="240" y="200" width="10" height="10" fill="#D9D9D9"/>
<rect x="280" y="200" width="10" height="10" fill="#D9D9D9"/>
</svg>
